<svg xmlns="http://www.w3.org/2000/svg" xmlns:xlink="http://www.w3.org/1999/xlink" viewBox="0 0 340.04 90.2"><defs><style>.cls-1,.cls-3{font-size:63.53px;font-family:ArialMT, Arial;}.cls-1,.cls-5{stroke:#3f008d;}.cls-1,.cls-4,.cls-5{stroke-miterlimit:10;}.cls-1{stroke-width:3px;}.cls-2{fill:none;stroke-width:5px;stroke:url(#Dégradé_sans_nom_70);}.cls-3,.cls-4,.cls-5{fill:#fff;}.cls-4{stroke:#2b66e9;}.cls-4,.cls-5{stroke-width:2px;}</style><linearGradient id="Dégradé_sans_nom_70" x1="107.2" y1="44.72" x2="337.59" y2="44.72" gradientUnits="userSpaceOnUse"><stop offset="0" stop-color="#3f008d"/><stop offset="1" stop-color="#2b66e9"/></linearGradient></defs><g id="Calque_2" data-name="Calque 2"><g id="Etoile_-_copie" data-name="Etoile - copie"><text class="cls-1" transform="translate(105.54 67.46)">Cosmos</text><path class="cls-2" d="M142.89,51.51l6,1.52Q147,60.46,142.1,64.34a18.75,18.75,0,0,1-12,3.89q-7.35,0-12-3a18.72,18.72,0,0,1-7-8.67,31,31,0,0,1-2.41-12.19A26.75,26.75,0,0,1,111.42,32a18.58,18.58,0,0,1,7.72-8,22.58,22.58,0,0,1,11-2.74,18.62,18.62,0,0,1,11.48,3.47,18.05,18.05,0,0,1,6.48,9.77l-5.92,1.4a14.13,14.13,0,0,0-4.59-7.23,12.24,12.24,0,0,0-7.57-2.26,14.68,14.68,0,0,0-8.77,2.51,13.34,13.34,0,0,0-5,6.74,27.26,27.26,0,0,0-1.42,8.74,27.74,27.74,0,0,0,1.69,10.13,12.58,12.58,0,0,0,5.26,6.46,14.71,14.71,0,0,0,7.72,2.14,12.94,12.94,0,0,0,8.56-2.91Q141.65,57.25,142.89,51.51Z"/><path class="cls-2" d="M153.53,51q0-9.15,5.09-13.56A15.31,15.31,0,0,1,169,33.77a14.75,14.75,0,0,1,11.1,4.45q4.32,4.45,4.32,12.3c0,4.24-.64,7.57-1.91,10a13.6,13.6,0,0,1-5.56,5.66,16.19,16.19,0,0,1-8,2,14.86,14.86,0,0,1-11.19-4.43Q153.53,59.33,153.53,51Zm5.74,0q0,6.32,2.76,9.47a9.2,9.2,0,0,0,13.87,0q2.76-3.16,2.76-9.65,0-6.11-2.78-9.26a9.21,9.21,0,0,0-13.85,0Q159.27,44.66,159.27,51Z"/><path class="cls-2" d="M188.71,57.62l5.52-.86a7.69,7.69,0,0,0,2.59,5.08,9,9,0,0,0,5.94,1.77c2.56,0,4.47-.52,5.71-1.57a4.66,4.66,0,0,0,1.86-3.67,3.39,3.39,0,0,0-1.65-3A23.63,23.63,0,0,0,203,53.5a53.13,53.13,0,0,1-8.52-2.68,8.13,8.13,0,0,1-4.82-7.56,8.39,8.39,0,0,1,1-4.08,9,9,0,0,1,2.74-3.12,11.43,11.43,0,0,1,3.55-1.62,16.73,16.73,0,0,1,4.83-.67,19,19,0,0,1,6.81,1.12,9.23,9.23,0,0,1,4.32,3,11.79,11.79,0,0,1,1.93,5.1l-5.46.75a6,6,0,0,0-2.16-4,7.9,7.9,0,0,0-5-1.43q-3.84,0-5.49,1.27a3.69,3.69,0,0,0-1.64,3,3,3,0,0,0,.68,2,4.88,4.88,0,0,0,2.14,1.49q.84.31,4.93,1.43a68.2,68.2,0,0,1,8.27,2.59A8.38,8.38,0,0,1,214.73,53a8.19,8.19,0,0,1,1.34,4.78A9.37,9.37,0,0,1,214.44,63a10.56,10.56,0,0,1-4.7,3.81,17.1,17.1,0,0,1-7,1.35q-6.42,0-9.79-2.67A12.38,12.38,0,0,1,188.71,57.62Z"/><path class="cls-2" d="M222.71,67.46V34.51h5v4.63a11.8,11.8,0,0,1,4.13-3.9,11.59,11.59,0,0,1,5.86-1.47,10.85,10.85,0,0,1,6,1.52A8.13,8.13,0,0,1,247,39.54q3.9-5.77,10.17-5.77,4.9,0,7.54,2.71t2.64,8.36V67.46h-5.56V46.7a15.33,15.33,0,0,0-.54-4.82,4.67,4.67,0,0,0-2-2.37,6.15,6.15,0,0,0-3.35-.9,7.79,7.79,0,0,0-5.77,2.31q-2.29,2.31-2.29,7.4V67.46h-5.59V46.05a9.41,9.41,0,0,0-1.36-5.58,5.17,5.17,0,0,0-4.47-1.86,8.09,8.09,0,0,0-4.36,1.24,7.08,7.08,0,0,0-2.9,3.63,20.4,20.4,0,0,0-.9,6.88v17.1Z"/><path class="cls-2" d="M273.55,51q0-9.15,5.09-13.56A15.31,15.31,0,0,1,289,33.77a14.75,14.75,0,0,1,11.1,4.45q4.32,4.45,4.32,12.3c0,4.24-.64,7.57-1.91,10A13.57,13.57,0,0,1,297,66.19a16.23,16.23,0,0,1-8,2,14.82,14.82,0,0,1-11.18-4.43Q273.55,59.33,273.55,51Zm5.74,0q0,6.32,2.76,9.47a9.2,9.2,0,0,0,13.87,0q2.76-3.16,2.76-9.65,0-6.11-2.78-9.26a9.21,9.21,0,0,0-13.85,0Q279.29,44.66,279.29,51Z"/><path class="cls-2" d="M308.73,57.62l5.52-.86a7.69,7.69,0,0,0,2.59,5.08,9,9,0,0,0,5.94,1.77q3.86,0,5.71-1.57a4.66,4.66,0,0,0,1.86-3.67,3.4,3.4,0,0,0-1.64-3A23.94,23.94,0,0,0,323,53.5a53.48,53.48,0,0,1-8.52-2.68,8.13,8.13,0,0,1-4.82-7.56,8.51,8.51,0,0,1,1-4.08,9,9,0,0,1,2.74-3.12A11.43,11.43,0,0,1,317,34.44a16.73,16.73,0,0,1,4.83-.67,19,19,0,0,1,6.81,1.12,9.23,9.23,0,0,1,4.32,3,11.66,11.66,0,0,1,1.93,5.1l-5.46.75a6,6,0,0,0-2.16-4,7.9,7.9,0,0,0-5-1.43q-3.84,0-5.49,1.27a3.69,3.69,0,0,0-1.64,3,3,3,0,0,0,.68,2,4.88,4.88,0,0,0,2.14,1.49q.84.31,4.93,1.43a68.2,68.2,0,0,1,8.27,2.59A8.41,8.41,0,0,1,334.76,53a8.26,8.26,0,0,1,1.33,4.78A9.37,9.37,0,0,1,334.46,63a10.5,10.5,0,0,1-4.7,3.81,17.1,17.1,0,0,1-6.95,1.35q-6.42,0-9.78-2.67A12.35,12.35,0,0,1,308.73,57.62Z"/><text class="cls-3" transform="translate(105.54 67.46)">Cosmos</text><circle class="cls-4" cx="45.55" cy="44.69" r="15.31"/><circle class="cls-5" cx="45.7" cy="10.46" r="9.46"/><circle class="cls-5" cx="70.32" cy="19.92" r="9.46"/><circle class="cls-5" cx="80.54" cy="44.69" r="9.46"/><circle class="cls-5" cx="70.32" cy="69.46" r="9.46"/><circle class="cls-5" cx="45.55" cy="79.74" r="9.46"/><circle class="cls-5" cx="19.92" cy="69.46" r="9.46"/><circle class="cls-5" cx="10.46" cy="44.69" r="9.46"/><circle class="cls-5" cx="20.78" cy="19.92" r="9.46"/></g></g></svg>